<?xml version="1.0" encoding="UTF-8" standalone="no"?>
<!DOCTYPE svg PUBLIC "-//W3C//DTD SVG 1.1//EN"
 "http://www.w3.org/Graphics/SVG/1.1/DTD/svg11.dtd">
<!-- Generated by graphviz version 11.0.0 (20240428.1522)
 -->
<!-- Title: main Pages: 1 -->
<!--zoomable 463 -->

<svg id="main" version="1.1" xmlns="http://www.w3.org/2000/svg" xmlns:xlink="http://www.w3.org/1999/xlink" xml:space="preserve" onload="init(evt)">
<style type="text/css"><![CDATA[
.node, .edge {opacity: 0.7;}
.node.selected, .edge.selected {opacity: 1;}
.edge:hover path { stroke: red; }
.edge:hover polygon { stroke: red; fill: red; }
]]></style>

<defs>
  <circle id="rim" cx="0" cy="0" r="7"/>
  <circle id="rim2" cx="0" cy="0" r="3.5"/>
  <g id="zoomPlus">
    <use xlink:href="#rim" fill="#404040"><set attributeName="fill" to="#808080" begin="zoomplus.mouseover" end="zoomplus.mouseout"/></use>
    <path d="M-4,0h8M0,-4v8" fill="none" stroke="white" stroke-width="1.5" pointer-events="none"/>
  </g>
  <g id="zoomMin">
    <use xlink:href="#rim" fill="#404040"><set attributeName="fill" to="#808080" begin="zoomminus.mouseover" end="zoomminus.mouseout"/></use>
    <path d="M-4,0h8" fill="none" stroke="white" stroke-width="1.5" pointer-events="none"/>
  </g>
  <g id="arrowUp" transform="translate(30 24)">
    <use xlink:href="#rim"/>
    <path pointer-events="none" fill="none" stroke="white" stroke-width="1.5" d="M0,-3.0v7 M-2.5,-0.5L0,-3.0L2.5,-0.5"/>
  </g>
  <g id="arrowRight" transform="rotate(90) translate(36 -43)">
    <use xlink:href="#rim"/>
    <path pointer-events="none" fill="none" stroke="white" stroke-width="1.5" d="M0,-3.0v7 M-2.5,-0.5L0,-3.0L2.5,-0.5"/>
  </g>
  <g id="arrowDown" transform="rotate(180) translate(-30 -48)">
    <use xlink:href="#rim"/>
    <path pointer-events="none" fill="none" stroke="white" stroke-width="1.5" d="M0,-3.0v7 M-2.5,-0.5L0,-3.0L2.5,-0.5"/>
  </g>
  <g id="arrowLeft" transform="rotate(270) translate(-36 17)">
    <use xlink:href="#rim"/>
    <path pointer-events="none" fill="none" stroke="white" stroke-width="1.5" d="M0,-3.0v7 M-2.5,-0.5L0,-3.0L2.5,-0.5"/>
  </g>
  <g id="resetDef">
    <use xlink:href="#rim2" fill="#404040"><set attributeName="fill" to="#808080" begin="reset.mouseover" end="reset.mouseout"/></use>
  </g>
</defs>
<script type="application/ecmascript">
var viewWidth = 577;
var viewHeight = 463;
var sectionId = 'dynsection-1';
</script>
<script type="application/ecmascript" xlink:href="../../svg.min.js"/>
<svg id="graph" class="graph">
<g id="viewport">
<title>main</title>
<!-- Node1 -->
<g id="Node000001" class="node">
<title>Node1</title>
<g id="a_Node000001"><a xlink:title="Main function.">
<polygon fill="#999999" stroke="#666666" points="37,-247.4 0,-247.4 0,-228.15 37,-228.15 37,-247.4"/>
<text text-anchor="middle" x="18.5" y="-233.9" font-family="Helvetica,sans-Serif" font-size="10.00">main</text>
</a>
</g>
</g>
<!-- Node2 -->
<g id="Node000002" class="node">
<title>Node2</title>
<g id="a_Node000002"><a xlink:href="../../d2/df6/kohonen__som__topology_8c.html#a2256c10b16edba377b64a44b6c656908" target="_top" xlink:title="Convert clock cycle difference to time in seconds.">
<polygon fill="white" stroke="#666666" points="149.75,-322.4 73,-322.4 73,-303.15 149.75,-303.15 149.75,-322.4"/>
<text text-anchor="middle" x="111.38" y="-308.9" font-family="Helvetica,sans-Serif" font-size="10.00">get_clock_diff</text>
</a>
</g>
</g>
<!-- Node1&#45;&gt;Node2 -->
<g id="edge1_Node000001_Node000002" class="edge">
<title>Node1&#45;&gt;Node2</title>
<g id="a_edge1_Node000001_Node000002"><a xlink:title=" ">
<path fill="none" stroke="#63b8ff" d="M26.92,-247.7C36.5,-259.98 54.18,-280.97 73,-294.78 74.14,-295.62 75.33,-296.43 76.55,-297.22"/>
<polygon fill="#63b8ff" stroke="#63b8ff" points="74.56,-300.12 84.98,-302.05 78.04,-294.04 74.56,-300.12"/>
</a>
</g>
</g>
<!-- Node3 -->
<g id="Node000003" class="node">
<title>Node3</title>
<g id="a_Node000003"><a xlink:href="../../d2/df6/kohonen__som__topology_8c.html#a1440a7779ac56f47a3f355ce4a8c7da0" target="_top" xlink:title="Test that creates a random set of points distributed in four clusters in 2D space and trains an SOM t...">
<polygon fill="white" stroke="#666666" points="130.25,-285.4 92.5,-285.4 92.5,-266.15 130.25,-266.15 130.25,-285.4"/>
<text text-anchor="middle" x="111.38" y="-271.9" font-family="Helvetica,sans-Serif" font-size="10.00">test1</text>
</a>
</g>
</g>
<!-- Node1&#45;&gt;Node3 -->
<g id="edge2_Node000001_Node000003" class="edge">
<title>Node1&#45;&gt;Node3</title>
<g id="a_edge2_Node000001_Node000003"><a xlink:title=" ">
<path fill="none" stroke="#63b8ff" d="M37.45,-245.28C50.07,-250.56 67.21,-257.73 81.7,-263.79"/>
<polygon fill="#63b8ff" stroke="#63b8ff" points="80.17,-266.94 90.75,-267.57 82.88,-260.48 80.17,-266.94"/>
</a>
</g>
</g>
<!-- Node12 -->
<g id="Node000012" class="node">
<title>Node12</title>
<g id="a_Node000012"><a xlink:href="../../d2/df6/kohonen__som__topology_8c.html#a0283886819c7c140a023582b7269e2d0" target="_top" xlink:title="Test that creates a random set of points distributed in 4 clusters in 3D space and trains an SOM that...">
<polygon fill="white" stroke="#666666" points="130.25,-229.4 92.5,-229.4 92.5,-210.15 130.25,-210.15 130.25,-229.4"/>
<text text-anchor="middle" x="111.38" y="-215.9" font-family="Helvetica,sans-Serif" font-size="10.00">test2</text>
</a>
</g>
</g>
<!-- Node1&#45;&gt;Node12 -->
<g id="edge14_Node000001_Node000012" class="edge">
<title>Node1&#45;&gt;Node12</title>
<g id="a_edge14_Node000001_Node000012"><a xlink:title=" ">
<path fill="none" stroke="#63b8ff" d="M37.45,-234.22C49.94,-231.75 66.87,-228.39 81.27,-225.54"/>
<polygon fill="#63b8ff" stroke="#63b8ff" points="81.53,-229.06 90.66,-223.68 80.17,-222.19 81.53,-229.06"/>
</a>
</g>
</g>
<!-- Node14 -->
<g id="Node000014" class="node">
<title>Node14</title>
<g id="a_Node000014"><a xlink:href="../../d2/df6/kohonen__som__topology_8c.html#a6d0455dd5c30adda100e95f0423c786e" target="_top" xlink:title="Test that creates a random set of points distributed in eight clusters in 3D space and trains an SOM ...">
<polygon fill="white" stroke="#666666" points="130.25,-116.4 92.5,-116.4 92.5,-97.15 130.25,-97.15 130.25,-116.4"/>
<text text-anchor="middle" x="111.38" y="-102.9" font-family="Helvetica,sans-Serif" font-size="10.00">test3</text>
</a>
</g>
</g>
<!-- Node1&#45;&gt;Node14 -->
<g id="edge22_Node000001_Node000014" class="edge">
<title>Node1&#45;&gt;Node14</title>
<g id="a_edge22_Node000001_Node000014"><a xlink:title=" ">
<path fill="none" stroke="#63b8ff" d="M26.33,-227.93C41.33,-206.31 77.37,-154.35 97.03,-126.01"/>
<polygon fill="#63b8ff" stroke="#63b8ff" points="99.78,-128.19 102.6,-117.98 94.03,-124.2 99.78,-128.19"/>
</a>
</g>
</g>
<!-- Node4 -->
<g id="Node000004" class="node">
<title>Node4</title>
<g id="a_Node000004"><a xlink:href="../../d1/d6b/group__kohonen__2d.html#gaf5ce14f026d6d231bef29161bac2b485" target="_top" xlink:title="Helper function to generate a random number in a given interval.">
<polygon fill="white" stroke="#666666" points="404.12,-248.4 350.62,-248.4 350.62,-229.15 404.12,-229.15 404.12,-248.4"/>
<text text-anchor="middle" x="377.38" y="-234.9" font-family="Helvetica,sans-Serif" font-size="10.00">_random</text>
</a>
</g>
</g>
<!-- Node3&#45;&gt;Node4 -->
<g id="edge3_Node000003_Node000004" class="edge">
<title>Node3&#45;&gt;Node4</title>
<g id="a_edge3_Node000003_Node000004"><a xlink:title=" ">
<path fill="none" stroke="#63b8ff" d="M130.73,-282.17C137.22,-285.04 144.27,-288.89 149.75,-293.78 172.11,-313.72 159.51,-336.31 185.75,-350.78 221.75,-370.62 240.81,-367.75 278.25,-350.78 320.05,-331.83 351.07,-285.29 366.15,-258.55"/>
<polygon fill="#63b8ff" stroke="#63b8ff" points="369.06,-260.54 370.75,-250.08 362.9,-257.2 369.06,-260.54"/>
</a>
</g>
</g>
<!-- Node5 -->
<g id="Node000005" class="node">
<title>Node5</title>
<g id="a_Node000005"><a xlink:href="../../d1/d6b/group__kohonen__2d.html#gac78022076d889bf2ebfb2c41d4527ceb" target="_top" xlink:title="Function that returns the pointer to (x, y, z) ^th location in the linear 3D array given by:">
<polygon fill="white" stroke="#666666" points="569,-191.4 476.5,-191.4 476.5,-172.15 569,-172.15 569,-191.4"/>
<text text-anchor="middle" x="522.75" y="-177.9" font-family="Helvetica,sans-Serif" font-size="10.00">kohonen_data_3d</text>
</a>
</g>
</g>
<!-- Node3&#45;&gt;Node5 -->
<g id="edge4_Node000003_Node000005" class="edge">
<title>Node3&#45;&gt;Node5</title>
<g id="a_edge4_Node000003_Node000005"><a xlink:title=" ">
<path fill="none" stroke="#63b8ff" d="M130.69,-281.65C137.33,-284.48 144.48,-288.45 149.75,-293.78 176.31,-320.64 153.88,-350.5 185.75,-370.78 220.43,-392.85 239.03,-383.09 278.25,-370.78 380.35,-338.73 471.52,-241.43 506.53,-200.37"/>
<polygon fill="#63b8ff" stroke="#63b8ff" points="509.14,-202.71 512.88,-192.8 503.77,-198.22 509.14,-202.71"/>
</a>
</g>
</g>
<!-- Node6 -->
<g id="Node000006" class="node">
<title>Node6</title>
<g id="a_Node000006"><a xlink:href="../../d1/d6b/group__kohonen__2d.html#gacb42eda8af6ebd6a141a34ab00a0b710" target="_top" xlink:title="Apply incremental algorithm with updating neighborhood and learning rates on all samples in the given...">
<polygon fill="white" stroke="#666666" points="270.38,-304.4 193.62,-304.4 193.62,-285.15 270.38,-285.15 270.38,-304.4"/>
<text text-anchor="middle" x="232" y="-290.9" font-family="Helvetica,sans-Serif" font-size="10.00">kohonen_som</text>
</a>
</g>
</g>
<!-- Node3&#45;&gt;Node6 -->
<g id="edge5_Node000003_Node000006" class="edge">
<title>Node3&#45;&gt;Node6</title>
<g id="a_edge5_Node000003_Node000006"><a xlink:title=" ">
<path fill="none" stroke="#63b8ff" d="M130.65,-278.7C144.36,-280.9 163.82,-284.02 181.95,-286.92"/>
<polygon fill="#63b8ff" stroke="#63b8ff" points="181.38,-290.37 191.81,-288.5 182.49,-283.46 181.38,-290.37"/>
</a>
</g>
</g>
<!-- Node9 -->
<g id="Node000009" class="node">
<title>Node9</title>
<g id="a_Node000009"><a xlink:href="../../d1/d6b/group__kohonen__2d.html#ga6824dc6d973eb3339af7aef5fea78b0c" target="_top" xlink:title="Save a given n&#45;dimensional data martix to file.">
<polygon fill="white" stroke="#666666" points="270.38,-153.4 193.62,-153.4 193.62,-134.15 270.38,-134.15 270.38,-153.4"/>
<text text-anchor="middle" x="232" y="-139.9" font-family="Helvetica,sans-Serif" font-size="10.00">save_2d_data</text>
</a>
</g>
</g>
<!-- Node3&#45;&gt;Node9 -->
<g id="edge9_Node000003_Node000009" class="edge">
<title>Node3&#45;&gt;Node9</title>
<g id="a_edge9_Node000003_Node000009"><a xlink:title=" ">
<path fill="none" stroke="#63b8ff" d="M122.76,-265.95C130.39,-258.62 140.92,-248.27 149.75,-238.78 173.64,-213.08 199.76,-181.95 215.77,-162.5"/>
<polygon fill="#63b8ff" stroke="#63b8ff" points="218.37,-164.85 222,-154.89 212.95,-160.41 218.37,-164.85"/>
</a>
</g>
</g>
<!-- Node10 -->
<g id="Node000010" class="node">
<title>Node10</title>
<g id="a_Node000010"><a xlink:href="../../d1/d6b/group__kohonen__2d.html#ga49d35f68f5d11d8ef6f8cce0d0e7bcba" target="_top" xlink:title="Create the distance matrix or U&#45;matrix from the trained weights and save to disk.">
<polygon fill="white" stroke="#666666" points="271.88,-116.4 192.12,-116.4 192.12,-97.15 271.88,-97.15 271.88,-116.4"/>
<text text-anchor="middle" x="232" y="-102.9" font-family="Helvetica,sans-Serif" font-size="10.00">save_u_matrix</text>
</a>
</g>
</g>
<!-- Node3&#45;&gt;Node10 -->
<g id="edge10_Node000003_Node000010" class="edge">
<title>Node3&#45;&gt;Node10</title>
<g id="a_edge10_Node000003_Node000010"><a xlink:title=" ">
<path fill="none" stroke="#63b8ff" d="M125.41,-265.69C133.43,-258.87 143.37,-249.22 149.75,-238.78 177.44,-193.43 149.57,-163.69 185.75,-124.78 186.22,-124.27 186.7,-123.78 187.2,-123.31"/>
<polygon fill="#63b8ff" stroke="#63b8ff" points="189.03,-126.31 195.07,-117.61 184.92,-120.64 189.03,-126.31"/>
</a>
</g>
</g>
<!-- Node11 -->
<g id="Node000011" class="node">
<title>Node11</title>
<g id="a_Node000011"><a xlink:href="../../d2/df6/kohonen__som__topology_8c.html#adb5ded007be1fd666fab9affe6764018" target="_top" xlink:title="Creates a random set of points distributed in four clusters in 3D space with centroids at the points.">
<polygon fill="white" stroke="#666666" points="275.62,-341.4 188.38,-341.4 188.38,-322.15 275.62,-322.15 275.62,-341.4"/>
<text text-anchor="middle" x="232" y="-327.9" font-family="Helvetica,sans-Serif" font-size="10.00">test_2d_classes</text>
</a>
</g>
</g>
<!-- Node3&#45;&gt;Node11 -->
<g id="edge12_Node000003_Node000011" class="edge">
<title>Node3&#45;&gt;Node11</title>
<g id="a_edge12_Node000003_Node000011"><a xlink:title=" ">
<path fill="none" stroke="#63b8ff" d="M130.73,-284.36C136.82,-287.27 143.61,-290.6 149.75,-293.78 166,-302.2 169.21,-305.93 185.75,-313.78 188.29,-314.98 190.93,-316.18 193.61,-317.35"/>
<polygon fill="#63b8ff" stroke="#63b8ff" points="191.99,-320.46 202.56,-321.09 194.69,-314 191.99,-320.46"/>
</a>
</g>
</g>
<!-- Node7 -->
<g id="Node000007" class="node">
<title>Node7</title>
<g id="a_Node000007"><a xlink:href="../../d1/d6b/group__kohonen__2d.html#ga83abb572c60d202e100595a989dfe123" target="_top" xlink:title="Update weights of the SOM using Kohonen algorithm.">
<polygon fill="white" stroke="#666666" points="440.5,-455.4 314.25,-455.4 314.25,-436.15 440.5,-436.15 440.5,-455.4"/>
<text text-anchor="middle" x="377.38" y="-441.9" font-family="Helvetica,sans-Serif" font-size="10.00">kohonen_update_weights</text>
</a>
</g>
</g>
<!-- Node6&#45;&gt;Node7 -->
<g id="edge6_Node000006_Node000007" class="edge">
<title>Node6&#45;&gt;Node7</title>
<g id="a_edge6_Node000006_Node000007"><a xlink:title=" ">
<path fill="none" stroke="#63b8ff" d="M264.89,-304.83C269.61,-307.05 274.23,-309.68 278.25,-312.78 319.17,-344.33 351.08,-397.31 366.4,-425.96"/>
<polygon fill="#63b8ff" stroke="#63b8ff" points="363.19,-427.37 370.91,-434.63 369.4,-424.14 363.19,-427.37"/>
</a>
</g>
</g>
<!-- Node7&#45;&gt;Node5 -->
<g id="edge8_Node000007_Node000005" class="edge">
<title>Node7&#45;&gt;Node5</title>
<g id="a_edge8_Node000007_Node000005"><a xlink:title=" ">
<path fill="none" stroke="#63b8ff" d="M419.59,-435.72C427.3,-432.31 434.74,-427.79 440.5,-421.78 501.03,-358.64 516.55,-248.79 520.46,-202.89"/>
<polygon fill="#63b8ff" stroke="#63b8ff" points="523.94,-203.23 521.19,-193.01 516.96,-202.72 523.94,-203.23"/>
</a>
</g>
</g>
<!-- Node8 -->
<g id="Node000008" class="node">
<title>Node8</title>
<g id="a_Node000008"><a xlink:href="../../d1/d6b/group__kohonen__2d.html#gadc22d512c00a9f5799ee067f4fb90b4b" target="_top" xlink:title="Get minimum value and index of the value in a matrix.">
<polygon fill="white" stroke="#666666" points="555.88,-455.4 489.62,-455.4 489.62,-436.15 555.88,-436.15 555.88,-455.4"/>
<text text-anchor="middle" x="522.75" y="-441.9" font-family="Helvetica,sans-Serif" font-size="10.00">get_min_2d</text>
</a>
</g>
</g>
<!-- Node7&#45;&gt;Node8 -->
<g id="edge7_Node000007_Node000008" class="edge">
<title>Node7&#45;&gt;Node8</title>
<g id="a_edge7_Node000007_Node000008"><a xlink:title=" ">
<path fill="none" stroke="#63b8ff" d="M440.84,-445.78C453.41,-445.78 466.36,-445.78 478.11,-445.78"/>
<polygon fill="#63b8ff" stroke="#63b8ff" points="477.9,-449.28 487.9,-445.78 477.9,-442.28 477.9,-449.28"/>
</a>
</g>
</g>
<!-- Node10&#45;&gt;Node5 -->
<g id="edge11_Node000010_Node000005" class="edge">
<title>Node10&#45;&gt;Node5</title>
<g id="a_edge11_Node000010_Node000005"><a xlink:title=" ">
<path fill="none" stroke="#63b8ff" d="M271.94,-116.89C323.75,-130.35 415.39,-154.15 472.11,-168.88"/>
<polygon fill="#63b8ff" stroke="#63b8ff" points="470.94,-172.2 481.5,-171.32 472.7,-165.42 470.94,-172.2"/>
</a>
</g>
</g>
<!-- Node11&#45;&gt;Node4 -->
<g id="edge13_Node000011_Node000004" class="edge">
<title>Node11&#45;&gt;Node4</title>
<g id="a_edge13_Node000011_Node000004"><a xlink:title=" ">
<path fill="none" stroke="#63b8ff" d="M261.8,-321.7C267.38,-319.36 273.1,-316.7 278.25,-313.78 307.45,-297.23 337.63,-272.87 356.68,-256.45"/>
<polygon fill="#63b8ff" stroke="#63b8ff" points="358.96,-259.1 364.18,-249.87 354.35,-253.83 358.96,-259.1"/>
</a>
</g>
</g>
<!-- Node12&#45;&gt;Node4 -->
<g id="edge15_Node000012_Node000004" class="edge">
<title>Node12&#45;&gt;Node4</title>
<g id="a_edge15_Node000012_Node000004"><a xlink:title=" ">
<path fill="none" stroke="#63b8ff" d="M130.52,-221.08C173.37,-224.17 281.55,-231.95 339.07,-236.09"/>
<polygon fill="#63b8ff" stroke="#63b8ff" points="338.8,-239.58 349.02,-236.81 339.3,-232.6 338.8,-239.58"/>
</a>
</g>
</g>
<!-- Node12&#45;&gt;Node5 -->
<g id="edge16_Node000012_Node000005" class="edge">
<title>Node12&#45;&gt;Node5</title>
<g id="a_edge16_Node000012_Node000005"><a xlink:title=" ">
<path fill="none" stroke="#63b8ff" d="M130.49,-218.1C188.5,-212.71 371.3,-195.74 465.06,-187.04"/>
<polygon fill="#63b8ff" stroke="#63b8ff" points="465.18,-190.54 474.81,-186.13 464.53,-183.57 465.18,-190.54"/>
</a>
</g>
</g>
<!-- Node12&#45;&gt;Node6 -->
<g id="edge17_Node000012_Node000006" class="edge">
<title>Node12&#45;&gt;Node6</title>
<g id="a_edge17_Node000012_Node000006"><a xlink:title=" ">
<path fill="none" stroke="#63b8ff" d="M123.11,-229.71C136.82,-242.01 161.67,-263 185.75,-276.78 187.68,-277.88 189.68,-278.94 191.73,-279.97"/>
<polygon fill="#63b8ff" stroke="#63b8ff" points="190.26,-283.14 200.81,-284.1 193.16,-276.77 190.26,-283.14"/>
</a>
</g>
</g>
<!-- Node12&#45;&gt;Node9 -->
<g id="edge18_Node000012_Node000009" class="edge">
<title>Node12&#45;&gt;Node9</title>
<g id="a_edge18_Node000012_Node000009"><a xlink:title=" ">
<path fill="none" stroke="#63b8ff" d="M125.55,-209.66C139.97,-198.77 163.95,-181.21 185.75,-167.78 190.52,-164.84 195.67,-161.9 200.74,-159.13"/>
<polygon fill="#63b8ff" stroke="#63b8ff" points="202.34,-162.24 209.53,-154.46 199.06,-156.06 202.34,-162.24"/>
</a>
</g>
</g>
<!-- Node12&#45;&gt;Node10 -->
<g id="edge19_Node000012_Node000010" class="edge">
<title>Node12&#45;&gt;Node10</title>
<g id="a_edge19_Node000012_Node000010"><a xlink:title=" ">
<path fill="none" stroke="#63b8ff" d="M117.68,-209.75C128.24,-190.69 153.63,-148.99 185.75,-124.78 187.06,-123.79 188.43,-122.85 189.84,-121.96"/>
<polygon fill="#63b8ff" stroke="#63b8ff" points="191.16,-125.22 198.31,-117.4 187.84,-119.06 191.16,-125.22"/>
</a>
</g>
</g>
<!-- Node13 -->
<g id="Node000013" class="node">
<title>Node13</title>
<g id="a_Node000013"><a xlink:href="../../d2/df6/kohonen__som__topology_8c.html#ad9e25202bb8b481461f932668f249dbc" target="_top" xlink:title="Creates a random set of points distributed in four clusters in 3D space with centroids at the points.">
<polygon fill="white" stroke="#666666" points="278.25,-267.4 185.75,-267.4 185.75,-248.15 278.25,-248.15 278.25,-267.4"/>
<text text-anchor="middle" x="232" y="-253.9" font-family="Helvetica,sans-Serif" font-size="10.00">test_3d_classes1</text>
</a>
</g>
</g>
<!-- Node12&#45;&gt;Node13 -->
<g id="edge20_Node000012_Node000013" class="edge">
<title>Node12&#45;&gt;Node13</title>
<g id="a_edge20_Node000012_Node000013"><a xlink:title=" ">
<path fill="none" stroke="#63b8ff" d="M130.65,-225.63C146.11,-230.59 168.88,-237.88 188.82,-244.26"/>
<polygon fill="#63b8ff" stroke="#63b8ff" points="187.51,-247.52 198.1,-247.24 189.64,-240.85 187.51,-247.52"/>
</a>
</g>
</g>
<!-- Node13&#45;&gt;Node4 -->
<g id="edge21_Node000013_Node000004" class="edge">
<title>Node13&#45;&gt;Node4</title>
<g id="a_edge21_Node000013_Node000004"><a xlink:title=" ">
<path fill="none" stroke="#63b8ff" d="M278.36,-251.77C297.97,-249.17 320.64,-246.16 339.22,-243.7"/>
<polygon fill="#63b8ff" stroke="#63b8ff" points="339.54,-247.19 348.99,-242.41 338.62,-240.25 339.54,-247.19"/>
</a>
</g>
</g>
<!-- Node14&#45;&gt;Node4 -->
<g id="edge23_Node000014_Node000004" class="edge">
<title>Node14&#45;&gt;Node4</title>
<g id="a_edge23_Node000014_Node000004"><a xlink:title=" ">
<path fill="none" stroke="#63b8ff" d="M130.62,-98.18C162.64,-84.45 230.1,-61.64 278.25,-87.78 329.87,-115.79 358.57,-184 370.19,-218.33"/>
<polygon fill="#63b8ff" stroke="#63b8ff" points="366.74,-219.05 373.14,-227.5 373.41,-216.9 366.74,-219.05"/>
</a>
</g>
</g>
<!-- Node14&#45;&gt;Node5 -->
<g id="edge24_Node000014_Node000005" class="edge">
<title>Node14&#45;&gt;Node5</title>
<g id="a_edge24_Node000014_Node000005"><a xlink:title=" ">
<path fill="none" stroke="#63b8ff" d="M116.4,-96.85C125.31,-76.38 148.9,-29.88 185.75,-11.78 222.65,6.35 239.03,0.54 278.25,-11.78 375.25,-42.23 467.29,-126.63 504.46,-163.81"/>
<polygon fill="#63b8ff" stroke="#63b8ff" points="501.74,-166.04 511.25,-170.71 506.73,-161.12 501.74,-166.04"/>
</a>
</g>
</g>
<!-- Node14&#45;&gt;Node6 -->
<g id="edge25_Node000014_Node000006" class="edge">
<title>Node14&#45;&gt;Node6</title>
<g id="a_edge25_Node000014_Node000006"><a xlink:title=" ">
<path fill="none" stroke="#63b8ff" d="M116.33,-116.5C130.68,-151.69 179.47,-270.67 185.75,-276.78 186.36,-277.37 187,-277.95 187.66,-278.51"/>
<polygon fill="#63b8ff" stroke="#63b8ff" points="185.54,-281.3 195.8,-283.94 189.42,-275.48 185.54,-281.3"/>
</a>
</g>
</g>
<!-- Node14&#45;&gt;Node9 -->
<g id="edge26_Node000014_Node000009" class="edge">
<title>Node14&#45;&gt;Node9</title>
<g id="a_edge26_Node000014_Node000009"><a xlink:title=" ">
<path fill="none" stroke="#63b8ff" d="M130.65,-112.48C145.82,-117.21 168.03,-124.14 187.69,-130.27"/>
<polygon fill="#63b8ff" stroke="#63b8ff" points="186.57,-133.58 197.15,-133.22 188.65,-126.9 186.57,-133.58"/>
</a>
</g>
</g>
<!-- Node14&#45;&gt;Node10 -->
<g id="edge27_Node000014_Node000010" class="edge">
<title>Node14&#45;&gt;Node10</title>
<g id="a_edge27_Node000014_Node000010"><a xlink:title=" ">
<path fill="none" stroke="#63b8ff" d="M130.65,-106.78C143.98,-106.78 162.73,-106.78 180.42,-106.78"/>
<polygon fill="#63b8ff" stroke="#63b8ff" points="180.31,-110.28 190.31,-106.78 180.31,-103.28 180.31,-110.28"/>
</a>
</g>
</g>
<!-- Node15 -->
<g id="Node000015" class="node">
<title>Node15</title>
<g id="a_Node000015"><a xlink:href="../../d2/df6/kohonen__som__topology_8c.html#a5bb02a8322d717ead1b11182c5f02a3a" target="_top" xlink:title="Creates a random set of points distributed in four clusters in 3D space with centroids at the points.">
<polygon fill="white" stroke="#666666" points="278.25,-40.4 185.75,-40.4 185.75,-21.15 278.25,-21.15 278.25,-40.4"/>
<text text-anchor="middle" x="232" y="-26.9" font-family="Helvetica,sans-Serif" font-size="10.00">test_3d_classes2</text>
</a>
</g>
</g>
<!-- Node14&#45;&gt;Node15 -->
<g id="edge28_Node000014_Node000015" class="edge">
<title>Node14&#45;&gt;Node15</title>
<g id="a_edge28_Node000014_Node000015"><a xlink:title=" ">
<path fill="none" stroke="#63b8ff" d="M125.55,-96.66C139.97,-85.77 163.95,-68.21 185.75,-54.78 190.52,-51.84 195.67,-48.9 200.74,-46.13"/>
<polygon fill="#63b8ff" stroke="#63b8ff" points="202.34,-49.24 209.53,-41.46 199.06,-43.06 202.34,-49.24"/>
</a>
</g>
</g>
<!-- Node15&#45;&gt;Node4 -->
<g id="edge29_Node000015_Node000004" class="edge">
<title>Node15&#45;&gt;Node4</title>
<g id="a_edge29_Node000015_Node000004"><a xlink:title=" ">
<path fill="none" stroke="#63b8ff" d="M258.26,-40.83C265.31,-44.48 272.58,-49.12 278.25,-54.78 326.83,-103.25 357.27,-180.83 369.8,-217.83"/>
<polygon fill="#63b8ff" stroke="#63b8ff" points="366.45,-218.87 372.89,-227.28 373.11,-216.69 366.45,-218.87"/>
</a>
</g>
</g>
</g>
</svg>

<g id="navigator" transform="translate(0 0)" fill="#404254">
  <rect fill="#f2f5e9" fill-opacity="0.5" stroke="#606060" stroke-width=".5" x="0" y="0" width="60" height="60"/>
  <use id="zoomplus" xlink:href="#zoomPlus" x="17" y="9" onmousedown="handleZoom(evt,'in')"/>
  <use id="zoomminus" xlink:href="#zoomMin" x="42" y="9" onmousedown="handleZoom(evt,'out')"/>
  <use id="reset" xlink:href="#resetDef" x="30" y="36" onmousedown="handleReset()"/>
   <use id="arrowup" xlink:href="#arrowUp" x="0" y="0" onmousedown="handlePan(0,-1)"/>
  <use id="arrowright" xlink:href="#arrowRight" x="0" y="0" onmousedown="handlePan(1,0)"/>
  <use id="arrowdown" xlink:href="#arrowDown" x="0" y="0" onmousedown="handlePan(0,1)"/>
  <use id="arrowleft" xlink:href="#arrowLeft" x="0" y="0" onmousedown="handlePan(-1,0)"/>
</g>
<svg viewBox="0 0 15 15" width="100%" height="30px" preserveAspectRatio="xMaxYMin meet">
 <g id="arrow_out" transform="scale(0.3 0.3)">
  <a xlink:href="kohonen__som__topology_8c_a3c04138a5bfe5d72780bb7e82a18e627_cgraph_org.svg" target="_base">
   <rect id="button" ry="5" rx="5" y="6" x="6" height="38" width="38"
        fill="#f2f5e9" fill-opacity="0.5" stroke="#606060" stroke-width="1.0"/>
   <path id="arrow"
     d="M 11.500037,31.436501 C 11.940474,20.09759 22.043105,11.32322 32.158766,21.979434 L 37.068811,17.246167 C 37.068811,17.246167 37.088388,32 37.088388,32 L 22.160133,31.978069 C 22.160133,31.978069 26.997745,27.140456 26.997745,27.140456 C 18.528582,18.264221 13.291696,25.230495 11.500037,31.436501 z"
     style="fill:#404040;"/>
  </a>
 </g>
</svg>

<style type='text/css'>
<![CDATA[
[data-mouse-over-selected='false'] { opacity: 0.7; }
[data-mouse-over-selected='true']  { opacity: 1.0; }
]]>
</style>
<script type="application/ecmascript"><![CDATA[
document.addEventListener('DOMContentLoaded', (event) => {
  highlightEdges();
  highlightAdjacentNodes();
});
]]></script>
</svg>
