<?xml version="1.0" encoding="UTF-8" standalone="no"?>
<!DOCTYPE svg PUBLIC "-//W3C//DTD SVG 1.1//EN"
 "http://www.w3.org/Graphics/SVG/1.1/DTD/svg11.dtd">
<!-- Generated by graphviz version 11.0.0 (20240428.1522)
 -->
<!-- Title: transRule Pages: 1 -->
<svg width="68pt" height="94pt"
 viewBox="0.00 0.00 67.50 93.75" xmlns="http://www.w3.org/2000/svg" xmlns:xlink="http://www.w3.org/1999/xlink">
<g id="graph0" class="graph" transform="scale(1 1) rotate(0) translate(4 89.75)">
<title>transRule</title>
<!-- Node1 -->
<g id="Node000001" class="node">
<title>Node1</title>
<g id="a_Node000001"><a xlink:title="Definition for a NFA state transition rule.">
<polygon fill="#999999" stroke="#666666" points="58.75,-85.75 0.75,-85.75 0.75,-66.5 58.75,-66.5 58.75,-85.75"/>
<text text-anchor="middle" x="29.75" y="-72.25" font-family="Helvetica,sans-Serif" font-size="10.00">transRule</text>
</a>
</g>
</g>
<!-- Node2 -->
<g id="Node000002" class="node">
<title>Node2</title>
<g id="a_Node000002"><a xlink:href="../../d4/d97/struct_n_f_a_state.html" target="_top" xlink:title="Definition for a NFA state.">
<polygon fill="white" stroke="#666666" points="59.5,-19.25 0,-19.25 0,0 59.5,0 59.5,-19.25"/>
<text text-anchor="middle" x="29.75" y="-5.75" font-family="Helvetica,sans-Serif" font-size="10.00">NFAState</text>
</a>
</g>
</g>
<!-- Node1&#45;&gt;Node2 -->
<g id="edge2_Node000002_Node000001" class="edge">
<title>Node1&#45;&gt;Node2</title>
<g id="a_edge2_Node000002_Node000001"><a xlink:title=" ">
<path fill="none" stroke="#9a32cd" stroke-dasharray="5,2" d="M9.46,-57.93C7.14,-55.03 5.12,-51.86 3.75,-48.5 -0.64,-37.72 8.43,-26.91 17.04,-19.62"/>
<polygon fill="#9a32cd" stroke="#9a32cd" points="6.93,-60.35 16.41,-65.09 11.96,-55.47 6.93,-60.35"/>
</a>
</g>
<text text-anchor="middle" x="15.75" y="-39" font-family="Helvetica,sans-Serif" font-size="10.00" fill="grey"> rules</text>
</g>
<!-- Node2&#45;&gt;Node1 -->
<g id="edge1_Node000001_Node000002" class="edge">
<title>Node2&#45;&gt;Node1</title>
<g id="a_edge1_Node000001_Node000002"><a xlink:title=" ">
<path fill="none" stroke="#9a32cd" stroke-dasharray="5,2" d="M31.5,-30.92C31.8,-36.61 31.96,-42.79 31.75,-48.5 31.53,-54.43 31.03,-61.09 30.58,-66.26"/>
<polygon fill="#9a32cd" stroke="#9a32cd" points="35,-30.88 30.79,-21.16 28.02,-31.39 35,-30.88"/>
</a>
</g>
<text text-anchor="middle" x="45.62" y="-39" font-family="Helvetica,sans-Serif" font-size="10.00" fill="grey"> target</text>
</g>
</g>
</svg>
