<?xml version="1.0" encoding="UTF-8" standalone="no"?>
<!DOCTYPE svg PUBLIC "-//W3C//DTD SVG 1.1//EN"
 "http://www.w3.org/Graphics/SVG/1.1/DTD/svg11.dtd">
<!-- Generated by graphviz version 11.0.0 (20240428.1522)
 -->
<!-- Title: main Pages: 1 -->
<svg width="189pt" height="195pt"
 viewBox="0.00 0.00 188.75 195.25" xmlns="http://www.w3.org/2000/svg" xmlns:xlink="http://www.w3.org/1999/xlink">
<g id="graph0" class="graph" transform="scale(1 1) rotate(0) translate(4 191.25)">
<title>main</title>
<!-- Node1 -->
<g id="Node000001" class="node">
<title>Node1</title>
<g id="a_Node000001"><a xlink:title="Main function.">
<polygon fill="#999999" stroke="#666666" points="37,-95.25 0,-95.25 0,-76 37,-76 37,-95.25"/>
<text text-anchor="middle" x="18.5" y="-81.75" font-family="Helvetica,sans-Serif" font-size="10.00">main</text>
</a>
</g>
</g>
<!-- Node2 -->
<g id="Node000002" class="node">
<title>Node2</title>
<g id="a_Node000002"><a xlink:href="../../df/dfa/vector_8c.html#a27a32c68950e464846b6730512968e4b" target="_top" xlink:title="This function initilaizes the vector and gives it a size of 1 and initializes the first index to 0.">
<polygon fill="white" stroke="#666666" points="176.65,-187.25 147.85,-187.25 147.85,-168 176.65,-168 176.65,-187.25"/>
<text text-anchor="middle" x="162.25" y="-173.75" font-family="Helvetica,sans-Serif" font-size="10.00">init</text>
</a>
</g>
</g>
<!-- Node1&#45;&gt;Node2 -->
<g id="edge1_Node000001_Node000002" class="edge">
<title>Node1&#45;&gt;Node2</title>
<g id="a_edge1_Node000001_Node000002"><a xlink:title=" ">
<path fill="none" stroke="#63b8ff" d="M33.46,-95.55C44.18,-103.11 59.41,-113.7 73,-122.62 94.7,-136.88 119.86,-152.47 137.75,-163.4"/>
<polygon fill="#63b8ff" stroke="#63b8ff" points="135.71,-166.25 146.07,-168.47 139.35,-160.28 135.71,-166.25"/>
</a>
</g>
</g>
<!-- Node3 -->
<g id="Node000003" class="node">
<title>Node3</title>
<g id="a_Node000003"><a xlink:href="../../df/dfa/vector_8c.html#abdb067a98f90bcd9b0aa4ceb364d607f" target="_top" xlink:title="This function prints the entire Vector as a list.">
<polygon fill="white" stroke="#666666" points="107.75,-19.25 73,-19.25 73,0 107.75,0 107.75,-19.25"/>
<text text-anchor="middle" x="90.38" y="-5.75" font-family="Helvetica,sans-Serif" font-size="10.00">print</text>
</a>
</g>
</g>
<!-- Node1&#45;&gt;Node3 -->
<g id="edge2_Node000001_Node000003" class="edge">
<title>Node1&#45;&gt;Node3</title>
<g id="a_edge2_Node000001_Node000003"><a xlink:title=" ">
<path fill="none" stroke="#63b8ff" d="M28.63,-75.69C39.89,-63.45 59.22,-42.42 73.05,-27.38"/>
<polygon fill="#63b8ff" stroke="#63b8ff" points="75.24,-30.17 79.43,-20.44 70.09,-25.43 75.24,-30.17"/>
</a>
</g>
</g>
<!-- Node4 -->
<g id="Node000004" class="node">
<title>Node4</title>
<g id="a_Node000004"><a xlink:href="../../db/d0c/infix__to__postfix_8c.html#a613462735d30cae1b85b606ecab30554" target="_top" xlink:title="push function">
<polygon fill="white" stroke="#666666" points="180.75,-132.25 143.75,-132.25 143.75,-113 180.75,-113 180.75,-132.25"/>
<text text-anchor="middle" x="162.25" y="-118.75" font-family="Helvetica,sans-Serif" font-size="10.00">push</text>
</a>
</g>
</g>
<!-- Node1&#45;&gt;Node4 -->
<g id="edge3_Node000001_Node000004" class="edge">
<title>Node1&#45;&gt;Node4</title>
<g id="a_edge3_Node000001_Node000004"><a xlink:title=" ">
<path fill="none" stroke="#63b8ff" d="M37.13,-92.59C47.47,-96.49 60.84,-101.24 73,-104.62 92.58,-110.07 115.04,-114.63 132.39,-117.79"/>
<polygon fill="#63b8ff" stroke="#63b8ff" points="131.55,-121.2 142.01,-119.49 132.77,-114.31 131.55,-121.2"/>
</a>
</g>
</g>
<!-- Node5 -->
<g id="Node000005" class="node">
<title>Node5</title>
<g id="a_Node000005"><a xlink:href="../../df/dfa/vector_8c.html#a6facac5424445995bd2f8bb03ffcb548" target="_top" xlink:title="This function sets an item at the specified index of the Vector.">
<polygon fill="white" stroke="#666666" points="177,-21.25 147.5,-21.25 147.5,-2 177,-2 177,-21.25"/>
<text text-anchor="middle" x="162.25" y="-7.75" font-family="Helvetica,sans-Serif" font-size="10.00">set</text>
</a>
</g>
</g>
<!-- Node1&#45;&gt;Node5 -->
<g id="edge5_Node000001_Node000005" class="edge">
<title>Node1&#45;&gt;Node5</title>
<g id="a_edge5_Node000001_Node000005"><a xlink:title=" ">
<path fill="none" stroke="#63b8ff" d="M37.45,-76.25C62.82,-63.01 109.2,-38.8 137.42,-24.06"/>
<polygon fill="#63b8ff" stroke="#63b8ff" points="138.68,-27.35 145.93,-19.62 135.44,-21.15 138.68,-27.35"/>
</a>
</g>
</g>
<!-- Node6 -->
<g id="Node000006" class="node">
<title>Node6</title>
<g id="a_Node000006"><a xlink:href="../../df/dfa/vector_8c.html#aa8dca7b867074164d5f45b0f3851269d" target="_top" xlink:title="This function tests the functions used to work with Vectors.">
<polygon fill="white" stroke="#666666" points="106.62,-95.25 74.12,-95.25 74.12,-76 106.62,-76 106.62,-95.25"/>
<text text-anchor="middle" x="90.38" y="-81.75" font-family="Helvetica,sans-Serif" font-size="10.00">test</text>
</a>
</g>
</g>
<!-- Node1&#45;&gt;Node6 -->
<g id="edge6_Node000001_Node000006" class="edge">
<title>Node1&#45;&gt;Node6</title>
<g id="a_edge6_Node000001_Node000006"><a xlink:title=" ">
<path fill="none" stroke="#63b8ff" d="M37.49,-85.62C45.19,-85.62 54.33,-85.62 62.78,-85.62"/>
<polygon fill="#63b8ff" stroke="#63b8ff" points="62.53,-89.13 72.53,-85.63 62.53,-82.13 62.53,-89.13"/>
</a>
</g>
</g>
<!-- Node4&#45;&gt;Node4 -->
<g id="edge4_Node000004_Node000004" class="edge">
<title>Node4&#45;&gt;Node4</title>
<g id="a_edge4_Node000004_Node000004"><a xlink:title=" ">
<path fill="none" stroke="#63b8ff" d="M151,-132.54C145.86,-141.15 149.62,-150.25 162.25,-150.25 169.16,-150.25 173.41,-147.53 175.01,-143.65"/>
<polygon fill="#63b8ff" stroke="#63b8ff" points="178.52,-143.48 173.71,-134.04 171.58,-144.42 178.52,-143.48"/>
</a>
</g>
</g>
<!-- Node6&#45;&gt;Node2 -->
<g id="edge8_Node000006_Node000002" class="edge">
<title>Node6&#45;&gt;Node2</title>
<g id="a_edge8_Node000006_Node000002"><a xlink:title=" ">
<path fill="none" stroke="#63b8ff" d="M97.69,-95.56C106.18,-108.69 122.1,-132.55 143.74,-158.95"/>
<polygon fill="#63b8ff" stroke="#63b8ff" points="140.9,-161.01 150,-166.44 146.28,-156.52 140.9,-161.01"/>
</a>
</g>
</g>
<!-- Node6&#45;&gt;Node4 -->
<g id="edge10_Node000006_Node000004" class="edge">
<title>Node6&#45;&gt;Node4</title>
<g id="a_edge10_Node000006_Node000004"><a xlink:title=" ">
<path fill="none" stroke="#63b8ff" d="M106.88,-93.84C114.63,-97.94 124.24,-103.03 133.22,-107.78"/>
<polygon fill="#63b8ff" stroke="#63b8ff" points="131.5,-110.83 141.98,-112.42 134.78,-104.65 131.5,-110.83"/>
</a>
</g>
</g>
<!-- Node6&#45;&gt;Node5 -->
<g id="edge11_Node000006_Node000005" class="edge">
<title>Node6&#45;&gt;Node5</title>
<g id="a_edge11_Node000006_Node000005"><a xlink:title=" ">
<path fill="none" stroke="#63b8ff" d="M100.59,-75.66C109.78,-65.73 124.5,-49.92 143.7,-29.75"/>
<polygon fill="#63b8ff" stroke="#63b8ff" points="146.17,-32.24 150.54,-22.59 141.11,-27.41 146.17,-32.24"/>
</a>
</g>
</g>
<!-- Node7 -->
<g id="Node000007" class="node">
<title>Node7</title>
<g id="a_Node000007"><a xlink:href="../../df/dfa/vector_8c.html#a15f534ebe962fda31cc191852befc250" target="_top" xlink:title="This function get the item at the specified index of the Vector.">
<polygon fill="white" stroke="#666666" points="177,-58.25 147.5,-58.25 147.5,-39 177,-39 177,-58.25"/>
<text text-anchor="middle" x="162.25" y="-44.75" font-family="Helvetica,sans-Serif" font-size="10.00">get</text>
</a>
</g>
</g>
<!-- Node6&#45;&gt;Node7 -->
<g id="edge7_Node000006_Node000007" class="edge">
<title>Node6&#45;&gt;Node7</title>
<g id="a_edge7_Node000006_Node000007"><a xlink:title=" ">
<path fill="none" stroke="#63b8ff" d="M106.88,-77.41C115.74,-72.72 127.04,-66.74 137.04,-61.44"/>
<polygon fill="#63b8ff" stroke="#63b8ff" points="138.67,-64.54 145.87,-56.77 135.4,-58.35 138.67,-64.54"/>
</a>
</g>
</g>
<!-- Node8 -->
<g id="Node000008" class="node">
<title>Node8</title>
<g id="a_Node000008"><a xlink:href="../../df/dfa/vector_8c.html#af2f92e8cc55e764980bc0573ab5cd06f" target="_top" xlink:title="This function gets the next item from the Vector each time it&#39;s called.">
<polygon fill="white" stroke="#666666" points="179.62,-95.25 144.88,-95.25 144.88,-76 179.62,-76 179.62,-95.25"/>
<text text-anchor="middle" x="162.25" y="-81.75" font-family="Helvetica,sans-Serif" font-size="10.00">next</text>
</a>
</g>
</g>
<!-- Node6&#45;&gt;Node8 -->
<g id="edge9_Node000006_Node000008" class="edge">
<title>Node6&#45;&gt;Node8</title>
<g id="a_edge9_Node000006_Node000008"><a xlink:title=" ">
<path fill="none" stroke="#63b8ff" d="M106.88,-85.62C114.71,-85.62 124.45,-85.62 133.51,-85.62"/>
<polygon fill="#63b8ff" stroke="#63b8ff" points="133.3,-89.13 143.3,-85.63 133.3,-82.13 133.3,-89.13"/>
</a>
</g>
</g>
</g>
</svg>
